<?xml version="1.0" encoding="UTF-8"?>

<svg version="1.1" xmlns="http://www.w3.org/2000/svg" width="144" height="144" viewBox="0 0 144 144" preserveAspectRatio="xMidYMid meet">
<g transform="translate(0,11)">
<path d="M0 0 C5.19510086 1.09896364 7.38824082 4.37878394 10.25 8.6875 C17.36085616 21.93289339 21.450851 36.23850328 17.1171875 51.1015625 C14.59693272 58.54568836 11.28716443 65.61223142 6.25 71.6875 C5.31607422 72.82251953 5.31607422 72.82251953 4.36328125 73.98046875 C-1.71503352 80.68796213 -8.5562652 84.1151108 -16.75 87.6875 C-17.59046875 88.06003906 -18.4309375 88.43257813 -19.296875 88.81640625 C-30.25361939 92.70709733 -43.99737459 91.78099279 -54.75 87.6875 C-63.97454199 83.17772392 -73.21058839 78.12914145 -77.08984375 68.1875 C-78.67326317 62.19111876 -78.76972888 56.80249323 -76.0625 51.1875 C-73.63411014 48.56221366 -72.0912251 46.97842788 -68.75 45.6875 C-62.59701156 45.99159091 -58.6072141 47.44153242 -53.4375 50.6875 C-47.67353002 54.1912097 -43.68382798 56.25584656 -36.75 55.6875 C-33.95257191 54.56755064 -31.35260402 53.20174234 -28.75 51.6875 C-29.13875039 57.13000545 -30.91552996 59.85302996 -34.75 63.6875 C-39.01276897 66.29252548 -43.8985808 66.47072285 -48.75 65.6875 C-52.24942683 64.28870404 -55.49885104 62.58796286 -58.75 60.6875 C-58.85864945 62.74882142 -58.93588321 64.81181321 -59 66.875 C-59.04640625 68.02355469 -59.0928125 69.17210938 -59.140625 70.35546875 C-58.67288646 74.3452785 -57.53184616 75.85507482 -54.75 78.6875 C-49.67550395 82.1913187 -44.71661428 82.59736493 -38.75 81.6875 C-34.18897868 80.27606647 -30.16154233 78.60183445 -27.26953125 74.6796875 C-26.25927382 72.7029383 -25.45003194 70.79199852 -24.75 68.6875 C-24.255 67.2025 -24.255 67.2025 -23.75 65.6875 C-23.72439146 63.16780304 -23.75448255 60.67696696 -23.828125 58.16015625 C-23.85542548 56.62957923 -23.88142315 55.09897852 -23.90625 53.56835938 C-23.94912279 51.1721114 -23.9991725 48.77712003 -24.07226562 46.3815918 C-24.41493644 34.62920679 -23.61018313 25.36717833 -16.43359375 15.50390625 C-15.69238281 14.76011719 -14.95117188 14.01632813 -14.1875 13.25 C-10.64786248 9.62447873 -7.43785568 5.91240067 -4.375 1.875 C-2.75 0.6875 -2.75 0.6875 0 0 Z " fill="#072448" transform="translate(103.75,28.3125)"/>
<path d="M0 0 C5.03590661 5.03590661 5.22288537 15.00842122 5.4375 21.8125 C5.26789548 28.49168759 3.62445597 33.00062175 -0.75 38 C-4.16304877 39.51691057 -7.37797272 39.64215225 -11 39 C-15.32613374 36.50045606 -17.13310182 33.57390055 -19 29 C-21.1586986 19.90914253 -20.78958921 12.15337067 -16.38671875 3.86328125 C-15 2 -15 2 -12 1 C-11.01 2.32 -10.02 3.64 -9 5 C-5.56206661 4.81870185 -5.56206661 4.81870185 -2 4 C-0.48705712 2.06402968 -0.48705712 2.06402968 0 0 Z " fill="#F3F4F5" transform="translate(110,35)"/>
<path d="M0 0 C3.76110572 0.02155361 5.955079 0.3286021 8.875 2.75 C12.47408949 6.62594253 12.65101041 8.99108792 12.6015625 14.1171875 C12.17430676 17.45440122 10.71784301 19.10710517 8.3125 21.375 C4.29068385 24.05621076 1.04013609 24.18844335 -3.6875 23.375 C-6.7592718 21.66422026 -9.09235654 19.56528693 -10.6875 16.375 C-11.10698626 12.9891466 -11.18164522 9.75431569 -10.6875 6.375 C-8.25 3.3125 -8.25 3.3125 -5.6875 1.375 C-4.05531064 -0.25718936 -2.24806873 0.08736889 0 0 Z " fill="#8FB0DD" transform="translate(56.6875,18.625)"/>
<path d="M0 0 C2.78992269 2.56966564 3.84849333 4.20879851 4.5625 7.9375 C3.78208006 12.186453 2.1671867 14.10822083 -1 17 C-4 17.75 -4 17.75 -7 17 C-10.1671867 14.10822083 -11.78208006 12.186453 -12.5625 7.9375 C-11.87020639 4.32218892 -10.54408967 2.61891584 -8 0 C-4.99733781 -1.5013311 -3.18669322 -0.8922741 0 0 Z " fill="#0E294C" transform="translate(49,56)"/>
<path d="M0 0 C2.4375 1.5 2.4375 1.5 4 4 C4.7152453 9.00671711 4.81148802 10.85436985 1.875 15 C-1 17 -1 17 -4.0625 17.5625 C-7 17 -7 17 -9.375 15.5625 C-11.7776838 11.77365246 -11.77693727 8.36526609 -11 4 C-8.21093968 -0.57405892 -5.10245628 -0.72892233 0 0 Z " fill="#0A2549" transform="translate(107,52)"/>
<path d="M0 0 C4.51211271 0.81218029 5.52075308 2.88591612 8.125 6.5625 C7.465 6.5625 6.805 6.5625 6.125 6.5625 C5.465 8.2125 4.805 9.8625 4.125 11.5625 C0.8125 12.25 0.8125 12.25 -2.875 12.5625 C-4.8125 11.25 -4.8125 11.25 -5.875 9.5625 C-5.875 8.9025 -5.875 8.2425 -5.875 7.5625 C-6.865 7.8925 -7.855 8.2225 -8.875 8.5625 C-8.875 6.5625 -8.875 6.5625 -7.5625 5.125 C-7.005625 4.609375 -6.44875 4.09375 -5.875 3.5625 C-5.441875 3.005625 -5.00875 2.44875 -4.5625 1.875 C-2.875 0.5625 -2.875 0.5625 0 0 Z " fill="#D75811" transform="translate(103.875,28.4375)"/>
<path d="M0 0 C3 0.375 3 0.375 6 2.375 C6.5625 5.75 6.5625 5.75 6 9.375 C3 11.8125 3 11.8125 0 13.375 C-2.4375 12.25 -2.4375 12.25 -5 10.375 C-6.15062678 6.99503385 -6.40433776 5.27881382 -4.9375 2 C-3 0.375 -3 0.375 0 0 Z " fill="#93B2DD" transform="translate(69,70.625)"/>
<path d="M0 0 C1.875 1.125 1.875 1.125 3 3 C2.56521739 8.43478261 2.56521739 8.43478261 1 10 C-2.4375 10.1875 -2.4375 10.1875 -6 10 C-8 8 -8 8 -8.3125 5.5625 C-8 3 -8 3 -6.8125 1.1875 C-4.35092224 -0.42525784 -2.88934264 -0.4334014 0 0 Z " fill="#DB5C15" transform="translate(38,35)"/>
<path d="M0 0 C2.0625 0.4375 2.0625 0.4375 4 1 C2.8553125 1.6496875 2.8553125 1.6496875 1.6875 2.3125 C-1.50164117 4.30089149 -1.50164117 4.30089149 -4 7 C-4.36270484 9.74243563 -4.36270484 9.74243563 -4.1875 12.6875 C-4.16042969 13.68136719 -4.13335937 14.67523438 -4.10546875 15.69921875 C-4.07066406 16.45847656 -4.03585938 17.21773437 -4 18 C-6.47035712 15.52964288 -6.35042281 14.6039993 -6.4375 11.1875 C-6.37877965 7.12405192 -6.20714563 6.26025989 -3.5625 2.9375 C-2.716875 2.298125 -1.87125 1.65875 -1 1 C-0.67 0.67 -0.34 0.34 0 0 Z " fill="#9FBAE0" transform="translate(52,19)"/>
<path d="M0 0 C1.9375 0.75 1.9375 0.75 4 2 C4.75 4.125 4.75 4.125 5 6 C3.68 6.33 2.36 6.66 1 7 C0.67 6.01 0.34 5.02 0 4 C-0.99 4.33 -1.98 4.66 -3 5 C-3 3 -3 3 -1.5 1.375 C-1.005 0.92125 -0.51 0.4675 0 0 Z " fill="#CF6325" transform="translate(98,32)"/>
<path d="M0 0 C0 3.86695678 -1.41909971 6.5088452 -3 10 C-6 10 -6 10 -8 9 C-6.85459775 7.68712379 -5.70866567 6.37470979 -4.5625 5.0625 C-3.92441406 4.33160156 -3.28632812 3.60070313 -2.62890625 2.84765625 C-1.77458541 1.87860647 -0.91348825 0.91348825 0 0 Z " fill="#1F3554" transform="translate(94,37)"/>
<path d="M0 0 C1.65 0.33 3.3 0.66 5 1 C4.67 2.32 4.34 3.64 4 5 C2.35 4.67 0.7 4.34 -1 4 C-0.67 2.68 -0.34 1.36 0 0 Z " fill="#A4BEE0" transform="translate(18,59)"/>
<path d="M0 0 C-0.33 0.99 -0.66 1.98 -1 3 C-3.31 3.33 -5.62 3.66 -8 4 C-8.33 3.01 -8.66 2.02 -9 1 C-5.8035914 -0.06546953 -3.34252724 -0.07427838 0 0 Z " fill="#DD5F1B" transform="translate(109,37)"/>
<path d="M0 0 C1.65 0 3.3 0 5 0 C4.67 1.65 4.34 3.3 4 5 C2.68 4.67 1.36 4.34 0 4 C0 2.68 0 1.36 0 0 Z " fill="#DA6421" transform="translate(56,53)"/>
<path d="M0 0 C1.32 0 2.64 0 4 0 C4 1.65 4 3.3 4 5 C2.35 4.67 0.7 4.34 -1 4 C-0.67 2.68 -0.34 1.36 0 0 Z " fill="#9DB8E0" transform="translate(72,44)"/>
<path d="M0 0 C2.79872437 2.52788007 4.45773019 4.20411134 5 8 C4.34 8 3.68 8 3 8 C2.67 8.99 2.34 9.98 2 11 C1.34 7.37 0.68 3.74 0 0 Z " fill="#283D5B" transform="translate(111,35)"/>
<path d="M0 0 C2.0625 0.4375 2.0625 0.4375 4 1 C4 1.99 4 2.98 4 4 C2.35 4.33 0.7 4.66 -1 5 C-1 1 -1 1 0 0 Z " fill="#ACB2BA" transform="translate(120,33)"/>
<path d="M0 0 C1.98 0.495 1.98 0.495 4 1 C3.67 2.32 3.34 3.64 3 5 C1.68 5 0.36 5 -1 5 C-0.67 3.35 -0.34 1.7 0 0 Z " fill="#DA5F1C" transform="translate(84,28)"/>
<path d="M0 0 C1.65 0.33 3.3 0.66 5 1 C5 1.66 5 2.32 5 3 C4.34 3 3.68 3 3 3 C3 3.66 3 4.32 3 5 C1.68 4.67 0.36 4.34 -1 4 C-0.67 2.68 -0.34 1.36 0 0 Z " fill="#B8BCC3" transform="translate(101,14)"/>
<path d="M0 0 C-0.33 1.32 -0.66 2.64 -1 4 C-0.34 4.33 0.32 4.66 1 5 C-0.65 5.33 -2.3 5.66 -4 6 C-4.33 4.35 -4.66 2.7 -5 1 C-2 0 -2 0 0 0 Z " fill="#969EA8" transform="translate(14,76)"/>
<path d="M0 0 C1.98 0.495 1.98 0.495 4 1 C3.67 2.32 3.34 3.64 3 5 C1.68 4.67 0.36 4.34 -1 4 C-0.67 2.68 -0.34 1.36 0 0 Z " fill="#A2A8B3" transform="translate(9,64)"/>
<path d="M0 0 C1.65 0.33 3.3 0.66 5 1 C4.67 2.32 4.34 3.64 4 5 C2.35 4.67 0.7 4.34 -1 4 C-0.67 2.68 -0.34 1.36 0 0 Z " fill="#9DA5AF" transform="translate(12,43)"/>
<path d="M0 0 C0.33 1.32 0.66 2.64 1 4 C-0.98 4.99 -0.98 4.99 -3 6 C-3 5.34 -3 4.68 -3 4 C-3.66 4 -4.32 4 -5 4 C-5 3.34 -5 2.68 -5 2 C-2 0 -2 0 0 0 Z " fill="#9EA5AF" transform="translate(119,27)"/>
<path d="M0 0 C1.98 0.495 1.98 0.495 4 1 C3.67 2.32 3.34 3.64 3 5 C1.68 4.67 0.36 4.34 -1 4 C-0.67 2.68 -0.34 1.36 0 0 Z " fill="#A7ACB6" transform="translate(32,16)"/>
<path d="M0 0 C1.98 0.495 1.98 0.495 4 1 C3.67 2.32 3.34 3.64 3 5 C1.68 4.67 0.36 4.34 -1 4 C-0.67 2.68 -0.34 1.36 0 0 Z " fill="#A6ABB5" transform="translate(64,4)"/>
<path d="M0 0 C0.99 0 1.98 0 3 0 C3.6875 1.8125 3.6875 1.8125 4 4 C2.625 5.75 2.625 5.75 1 7 C0.67 7 0.34 7 0 7 C0 4.69 0 2.38 0 0 Z " fill="#0E294C" transform="translate(114,43)"/>
<path d="M0 0 C1.98 0.495 1.98 0.495 4 1 C4 1.99 4 2.98 4 4 C2.68 4.33 1.36 4.66 0 5 C-0.33 4.34 -0.66 3.68 -1 3 C-0.67 2.01 -0.34 1.02 0 0 Z " fill="#A9ADB6" transform="translate(92,9)"/>
<path d="M0 0 C1.32 0.66 2.64 1.32 4 2 C3.67 3.32 3.34 4.64 3 6 C1.68 5.34 0.36 4.68 -1 4 C-0.67 2.68 -0.34 1.36 0 0 Z " fill="#959EA7" transform="translate(17,33)"/>
</g>
</svg>